<svg width="185" height="60" viewBox="0 0 185 60" fill="none" xmlns="http://www.w3.org/2000/svg">
<path d="M10.8 53.136C10.632 53.712 10.32 54.096 9.864 54.288C9.408 54.48 8.928 54.504 8.424 54.36C7.944 54.24 7.548 53.988 7.236 53.604C6.948 53.196 6.888 52.692 7.056 52.092C6.624 52.812 6.192 53.208 5.76 53.28C5.328 53.328 5.04 53.148 4.896 52.74C4.752 52.308 4.896 51.744 5.328 51.048C4.896 51.36 4.44 51.42 3.96 51.228C3.504 51.012 3.12 50.676 2.808 50.22C2.496 49.74 2.328 49.248 2.304 48.744C2.28 48.24 2.484 47.832 2.916 47.52C2.148 47.736 1.596 47.76 1.26 47.592C0.948 47.424 0.888 47.196 1.08 46.908C1.296 46.596 1.8 46.344 2.592 46.152C1.944 46.176 1.452 46.032 1.116 45.72C0.78 45.408 0.588 45.036 0.54 44.604C0.516 44.148 0.648 43.74 0.936 43.38C1.248 43.02 1.728 42.816 2.376 42.768C1.824 42.768 1.404 42.54 1.116 42.084C0.852 41.604 0.72 41.076 0.72 40.5C0.72 39.9 0.864 39.372 1.152 38.916C1.44 38.46 1.86 38.232 2.412 38.232C2.028 38.088 1.776 37.8 1.656 37.368C1.56 36.936 1.56 36.456 1.656 35.928C1.752 35.376 1.932 34.86 2.196 34.38C2.46 33.876 2.76 33.492 3.096 33.228C3.456 32.94 3.828 32.868 4.212 33.012C3.876 32.556 3.78 32.1 3.924 31.644C4.068 31.188 4.344 30.804 4.752 30.492C5.16 30.18 5.604 30.024 6.084 30.024C6.564 30 6.972 30.216 7.308 30.672C7.212 30.168 7.296 29.736 7.56 29.376C7.848 28.992 8.232 28.704 8.712 28.512C9.192 28.296 9.696 28.188 10.224 28.188C10.752 28.164 11.208 28.26 11.592 28.476C12 28.692 12.264 29.052 12.384 29.556C12.408 28.956 12.624 28.512 13.032 28.224C13.44 27.936 13.896 27.804 14.4 27.828C14.928 27.852 15.384 28.032 15.768 28.368C16.152 28.68 16.332 29.136 16.308 29.736C16.5 29.208 16.836 28.86 17.316 28.692C17.796 28.5 18.312 28.452 18.864 28.548C19.44 28.644 19.956 28.848 20.412 29.16C20.892 29.448 21.24 29.82 21.456 30.276C21.696 30.732 21.72 31.224 21.528 31.752C21.912 31.392 22.296 31.224 22.68 31.248C23.064 31.272 23.376 31.416 23.616 31.68C23.88 31.944 24 32.268 23.976 32.652C23.976 33.036 23.772 33.408 23.364 33.768C23.892 33.624 24.336 33.696 24.696 33.984C25.08 34.272 25.344 34.656 25.488 35.136C25.632 35.592 25.62 36.036 25.452 36.468C25.308 36.9 24.972 37.2 24.444 37.368C24.444 38.16 24.336 38.688 24.12 38.952C23.904 39.216 23.688 39.216 23.472 38.952C23.256 38.688 23.148 38.16 23.148 37.368C23.148 37.8 22.968 38.148 22.608 38.412C22.272 38.676 21.84 38.856 21.312 38.952C20.808 39.024 20.292 39.024 19.764 38.952C19.26 38.856 18.828 38.676 18.468 38.412C18.132 38.148 17.964 37.8 17.964 37.368C17.484 37.872 17.052 38.1 16.668 38.052C16.284 37.98 16.056 37.752 15.984 37.368C15.936 36.984 16.152 36.552 16.632 36.072C16.08 36.696 15.564 36.996 15.084 36.972C14.628 36.924 14.364 36.684 14.292 36.252C14.076 36.492 13.872 36.516 13.68 36.324C13.464 36.78 13.128 37.188 12.672 37.548C12.24 37.884 11.772 38.088 11.268 38.16C11.676 38.544 11.724 38.976 11.412 39.456C11.124 39.936 10.512 40.152 9.576 40.104C10.392 40.128 10.932 40.26 11.196 40.5C11.46 40.74 11.46 40.98 11.196 41.22C10.932 41.46 10.392 41.58 9.576 41.58C10.344 41.556 10.896 41.688 11.232 41.976C11.568 42.24 11.676 42.54 11.556 42.876C11.436 43.212 11.088 43.464 10.512 43.632C11.088 43.704 11.556 44.04 11.916 44.64C12.3 45.24 12.468 45.828 12.42 46.404C12.564 46.38 12.684 46.44 12.78 46.584C13.044 46.104 13.44 45.744 13.968 45.504C14.52 45.24 15.06 45.156 15.588 45.252C16.14 45.348 16.572 45.684 16.884 46.26C16.764 45.756 16.836 45.336 17.1 45C17.388 44.664 17.748 44.448 18.18 44.352C18.636 44.232 19.068 44.256 19.476 44.424C19.884 44.592 20.148 44.928 20.268 45.432C20.268 44.736 20.448 44.208 20.808 43.848C21.168 43.488 21.588 43.308 22.068 43.308C22.548 43.308 22.968 43.488 23.328 43.848C23.688 44.208 23.868 44.736 23.868 45.432C24.54 45.36 25.008 45.492 25.272 45.828C25.536 46.164 25.572 46.524 25.38 46.908C25.188 47.268 24.744 47.472 24.048 47.52C24.528 47.832 24.78 48.216 24.804 48.672C24.852 49.104 24.744 49.524 24.48 49.932C24.216 50.316 23.868 50.592 23.436 50.76C23.028 50.904 22.596 50.82 22.14 50.508C22.38 50.988 22.356 51.468 22.068 51.948C21.78 52.404 21.36 52.776 20.808 53.064C20.256 53.352 19.704 53.484 19.152 53.46C18.6 53.436 18.204 53.184 17.964 52.704C18.108 53.424 18.072 53.928 17.856 54.216C17.664 54.504 17.412 54.552 17.1 54.36C16.788 54.192 16.56 53.76 16.416 53.064C16.464 53.904 16.212 54.48 15.66 54.792C15.108 55.104 14.388 55.128 13.5 54.864C12.636 54.6 11.736 54.024 10.8 53.136ZM29.4623 48.996C28.8623 48.996 28.4063 48.864 28.0943 48.6C27.8063 48.312 27.6623 47.988 27.6623 47.628C27.6623 47.268 27.8063 46.956 28.0943 46.692C28.4063 46.428 28.8623 46.296 29.4623 46.296C28.6463 46.296 28.0943 46.164 27.8063 45.9C27.5423 45.636 27.5423 45.372 27.8063 45.108C28.0943 44.844 28.6463 44.712 29.4623 44.712C28.8623 44.712 28.4183 44.58 28.1303 44.316C27.8423 44.028 27.6983 43.704 27.6983 43.344C27.6983 42.984 27.8423 42.672 28.1303 42.408C28.4183 42.12 28.8623 41.976 29.4623 41.976C28.7663 41.976 28.2383 41.772 27.8783 41.364C27.5423 40.932 27.3743 40.44 27.3743 39.888C27.3743 39.336 27.5423 38.856 27.8783 38.448C28.2383 38.016 28.7663 37.8 29.4623 37.8C28.8383 37.8 28.3703 37.584 28.0583 37.152C27.7463 36.696 27.5903 36.18 27.5903 35.604C27.5903 35.004 27.7463 34.488 28.0583 34.056C28.3703 33.6 28.8383 33.372 29.4623 33.372C28.8863 33.348 28.4543 33.168 28.1663 32.832C27.9023 32.472 27.7703 32.064 27.7703 31.608C27.7703 31.152 27.9143 30.756 28.2023 30.42C28.4903 30.06 28.9223 29.88 29.4983 29.88C29.4983 29.16 29.6663 28.632 30.0023 28.296C30.3383 27.936 30.7223 27.756 31.1543 27.756C31.5863 27.756 31.9703 27.936 32.3063 28.296C32.6423 28.632 32.8103 29.16 32.8103 29.88C32.8103 29.208 32.9663 28.704 33.2783 28.368C33.6143 28.032 33.9863 27.864 34.3943 27.864C34.8023 27.864 35.1623 28.032 35.4743 28.368C35.8103 28.704 35.9783 29.208 35.9783 29.88C36.7223 29.76 37.2383 29.844 37.5263 30.132C37.8143 30.396 37.8623 30.708 37.6703 31.068C37.5023 31.428 37.0463 31.668 36.3023 31.788C37.1183 31.788 37.6943 32.016 38.0303 32.472C38.3903 32.904 38.5103 33.384 38.3903 33.912C38.2703 34.416 37.9223 34.788 37.3463 35.028C37.7783 35.1 38.1263 35.316 38.3903 35.676C38.6783 36.012 38.8463 36.384 38.8943 36.792C39.3743 36.504 39.9263 36.384 40.5503 36.432C41.1983 36.48 41.7143 36.708 42.0983 37.116C42.1223 36.708 42.2903 36.444 42.6023 36.324C42.3623 35.892 42.3743 35.436 42.6383 34.956C42.9263 34.476 43.4783 34.236 44.2943 34.236C43.5743 34.236 43.0343 34.02 42.6743 33.588C42.3383 33.156 42.1703 32.652 42.1703 32.076C42.1703 31.5 42.3383 30.996 42.6743 30.564C43.0343 30.132 43.5743 29.916 44.2943 29.916C44.2943 29.316 44.4623 28.86 44.7983 28.548C45.1343 28.236 45.5183 28.08 45.9503 28.08C46.3823 28.056 46.7663 28.2 47.1023 28.512C47.4623 28.824 47.6423 29.28 47.6423 29.88C47.6423 29.184 47.7743 28.656 48.0383 28.296C48.3023 27.936 48.6023 27.756 48.9383 27.756C49.2743 27.756 49.5743 27.936 49.8383 28.296C50.1023 28.656 50.2343 29.184 50.2343 29.88C50.6663 29.784 51.0383 29.892 51.3503 30.204C51.6623 30.492 51.8783 30.876 51.9983 31.356C52.1183 31.836 52.1063 32.292 51.9623 32.724C51.8423 33.132 51.5663 33.396 51.1343 33.516C51.8303 33.516 52.3463 33.756 52.6823 34.236C53.0183 34.692 53.1863 35.244 53.1863 35.892C53.1863 36.516 53.0183 37.068 52.6823 37.548C52.3463 38.004 51.8303 38.232 51.1343 38.232C51.8543 38.232 52.3823 38.448 52.7183 38.88C53.0783 39.312 53.2583 39.816 53.2583 40.392C53.2583 40.968 53.0783 41.472 52.7183 41.904C52.3823 42.336 51.8543 42.552 51.1343 42.552C51.8543 42.552 52.3823 42.78 52.7183 43.236C53.0783 43.692 53.2583 44.232 53.2583 44.856C53.2583 45.456 53.0783 45.996 52.7183 46.476C52.3823 46.932 51.8543 47.16 51.1343 47.16C51.9023 47.16 52.4063 47.28 52.6463 47.52C52.9103 47.736 52.9103 47.964 52.6463 48.204C52.4063 48.444 51.9023 48.564 51.1343 48.564C51.6863 48.564 52.0943 48.72 52.3583 49.032C52.6463 49.344 52.7903 49.704 52.7903 50.112C52.7903 50.496 52.6463 50.844 52.3583 51.156C52.0943 51.444 51.6863 51.588 51.1343 51.588C51.3503 52.068 51.3623 52.5 51.1703 52.884C50.9783 53.244 50.6903 53.508 50.3063 53.676C49.9223 53.844 49.5263 53.88 49.1183 53.784C48.7343 53.688 48.4343 53.4 48.2183 52.92C48.2423 53.544 48.0503 54.012 47.6423 54.324C47.2583 54.66 46.8023 54.828 46.2743 54.828C45.7703 54.852 45.3143 54.708 44.9063 54.396C44.5223 54.108 44.3183 53.652 44.2943 53.028C43.8143 53.028 43.4423 52.812 43.1783 52.38C42.9143 51.948 42.7463 51.444 42.6743 50.868C42.6263 50.268 42.6863 49.704 42.8543 49.176C43.0223 48.624 43.3103 48.24 43.7183 48.024C42.9743 48.144 42.3863 47.952 41.9543 47.448C41.5463 46.92 41.3903 46.356 41.4863 45.756C40.5983 46.044 39.7343 46.032 38.8943 45.72C38.9423 46.008 38.8703 46.26 38.6783 46.476C38.5103 46.692 38.2583 46.824 37.9223 46.872C38.3543 47.184 38.4383 47.556 38.1743 47.988C37.9103 48.396 37.2863 48.6 36.3023 48.6C37.2383 48.6 37.8503 48.732 38.1383 48.996C38.4503 49.26 38.4503 49.524 38.1383 49.788C37.8503 50.052 37.2383 50.184 36.3023 50.184C36.8783 50.184 37.3103 50.316 37.5983 50.58C37.9103 50.844 38.0663 51.156 38.0663 51.516C38.0663 51.876 37.9103 52.2 37.5983 52.488C37.3103 52.752 36.8783 52.884 36.3023 52.884C36.3263 53.796 36.2303 54.396 36.0143 54.684C35.7983 54.996 35.5703 54.996 35.3303 54.684C35.1143 54.396 34.9943 53.808 34.9703 52.92C34.9703 53.496 34.8383 53.916 34.5743 54.18C34.3103 54.468 34.0103 54.612 33.6743 54.612C33.3383 54.612 33.0383 54.468 32.7743 54.18C32.5103 53.916 32.3783 53.496 32.3783 52.92C32.3783 53.856 32.2463 54.48 31.9823 54.792C31.7183 55.104 31.4543 55.104 31.1903 54.792C30.9263 54.48 30.7943 53.856 30.7943 52.92C30.7943 53.544 30.7223 53.988 30.5783 54.252C30.4343 54.54 30.2663 54.564 30.0743 54.324C29.9063 54.084 29.7503 53.544 29.6063 52.704C29.4863 51.84 29.4383 50.604 29.4623 48.996ZM57.2709 49.428C56.6949 49.428 56.2509 49.236 55.9389 48.852C55.6509 48.444 55.5069 47.976 55.5069 47.448C55.5069 46.896 55.6509 46.428 55.9389 46.044C56.2509 45.636 56.6949 45.432 57.2709 45.432C56.6949 45.432 56.2629 45.276 55.9749 44.964C55.7109 44.652 55.5789 44.304 55.5789 43.92C55.5789 43.512 55.7109 43.164 55.9749 42.876C56.2629 42.564 56.6949 42.408 57.2709 42.408C56.3829 42.408 55.7829 42.228 55.4709 41.868C55.1829 41.508 55.1829 41.148 55.4709 40.788C55.7829 40.428 56.3829 40.248 57.2709 40.248C56.6709 40.248 56.2149 40.104 55.9029 39.816C55.5909 39.528 55.4349 39.192 55.4349 38.808C55.4349 38.424 55.5909 38.088 55.9029 37.8C56.2149 37.512 56.6709 37.368 57.2709 37.368C56.5989 37.368 56.0949 37.152 55.7589 36.72C55.4469 36.288 55.2909 35.796 55.2909 35.244C55.2909 34.668 55.4469 34.164 55.7589 33.732C56.0949 33.3 56.5989 33.084 57.2709 33.084C56.8149 32.94 56.5269 32.676 56.4069 32.292C56.3109 31.884 56.3229 31.476 56.4429 31.068C56.5869 30.636 56.8149 30.3 57.1269 30.06C57.4629 29.796 57.8589 29.736 58.3149 29.88C58.3149 29.136 58.4469 28.644 58.7109 28.404C58.9749 28.164 59.2389 28.164 59.5029 28.404C59.7669 28.644 59.8989 29.136 59.8989 29.88C59.8989 29.448 60.0789 29.1 60.4389 28.836C60.7989 28.572 61.2429 28.404 61.7709 28.332C62.3229 28.236 62.8629 28.236 63.3909 28.332C63.9429 28.404 64.3989 28.572 64.7589 28.836C65.1429 29.1 65.3349 29.448 65.3349 29.88C65.3349 29.112 65.5149 28.608 65.8749 28.368C66.2589 28.104 66.6429 28.104 67.0269 28.368C67.4109 28.608 67.6029 29.112 67.6029 29.88C67.6029 29.232 67.7589 28.752 68.0709 28.44C68.3829 28.128 68.7309 27.972 69.1149 27.972C69.5229 27.972 69.8709 28.128 70.1589 28.44C70.4709 28.752 70.6269 29.232 70.6269 29.88C70.6269 29.448 70.7949 29.1 71.1309 28.836C71.4669 28.572 71.8749 28.404 72.3549 28.332C72.8589 28.236 73.3629 28.236 73.8669 28.332C74.3709 28.404 74.7909 28.572 75.1269 28.836C75.4629 29.1 75.6309 29.448 75.6309 29.88C76.3509 29.952 76.8189 30.108 77.0349 30.348C77.2749 30.564 77.2629 30.78 76.9989 30.996C76.7349 31.188 76.2429 31.248 75.5229 31.176C76.1469 31.248 76.6029 31.476 76.8909 31.86C77.1789 32.244 77.2989 32.676 77.2509 33.156C77.2029 33.612 76.9989 34.008 76.6389 34.344C76.3029 34.656 75.8229 34.788 75.1989 34.74C75.1989 35.508 75.0669 36.024 74.8029 36.288C74.5389 36.528 74.2749 36.528 74.0109 36.288C73.7469 36.024 73.6149 35.508 73.6149 34.74C73.6149 35.46 73.4229 35.952 73.0389 36.216C72.6789 36.456 72.3069 36.456 71.9229 36.216C71.5389 35.952 71.3469 35.46 71.3469 34.74C71.3469 35.1 71.1669 35.388 70.8069 35.604C70.4469 35.82 70.0029 35.952 69.4749 36C68.9709 36.048 68.4669 36.036 67.9629 35.964C67.4589 35.868 67.0749 35.688 66.8109 35.424C66.8589 35.712 66.8349 35.988 66.7389 36.252C66.6429 36.516 66.4869 36.744 66.2709 36.936C66.5589 37.128 66.7869 37.368 66.9549 37.656C67.1469 37.92 67.2549 38.208 67.2789 38.52C67.4709 38.232 67.7589 38.04 68.1429 37.944C68.5269 37.824 68.9229 37.788 69.3309 37.836C69.7389 37.884 70.0869 38.028 70.3749 38.268C70.6629 38.484 70.8069 38.784 70.8069 39.168C70.8069 38.64 70.9389 38.244 71.2029 37.98C71.4909 37.716 71.8149 37.584 72.1749 37.584C72.5349 37.584 72.8469 37.716 73.1109 37.98C73.3989 38.244 73.5429 38.64 73.5429 39.168C73.8309 38.424 74.1189 37.968 74.4069 37.8C74.6949 37.632 74.8869 37.716 74.9829 38.052C75.1029 38.364 75.0189 38.892 74.7309 39.636C75.4029 39.684 75.8829 39.924 76.1709 40.356C76.4829 40.788 76.6149 41.268 76.5669 41.796C76.5189 42.324 76.3149 42.78 75.9549 43.164C75.5949 43.524 75.0789 43.68 74.4069 43.632C74.4069 43.992 74.2269 44.28 73.8669 44.496C73.5309 44.712 73.0989 44.856 72.5709 44.928C72.0669 45 71.5509 45 71.0229 44.928C70.5189 44.856 70.0869 44.712 69.7269 44.496C69.3909 44.28 69.2229 43.992 69.2229 43.632C69.2229 44.112 69.0429 44.46 68.6829 44.676C68.3229 44.892 67.9269 44.976 67.4949 44.928C67.0869 44.88 66.7749 44.688 66.5589 44.352C66.5349 44.64 66.4389 44.892 66.2709 45.108C66.1269 45.324 65.9469 45.492 65.7309 45.612C65.9949 45.852 66.1149 46.14 66.0909 46.476C66.3789 46.548 66.6309 46.716 66.8469 46.98C67.0629 47.244 67.1709 47.604 67.1709 48.06C67.1709 47.628 67.3989 47.304 67.8549 47.088C68.3349 46.848 68.8749 46.728 69.4749 46.728C70.0749 46.728 70.6029 46.848 71.0589 47.088C71.5389 47.304 71.7789 47.628 71.7789 48.06C71.7789 47.316 71.9589 46.824 72.3189 46.584C72.6789 46.344 73.0269 46.344 73.3629 46.584C73.7229 46.824 73.9029 47.316 73.9029 48.06C74.2389 47.58 74.6229 47.364 75.0549 47.412C75.4869 47.46 75.7989 47.676 75.9909 48.06C76.2069 48.444 76.1469 48.876 75.8109 49.356C76.3149 49.548 76.6269 49.872 76.7469 50.328C76.8669 50.784 76.8429 51.252 76.6749 51.732C76.5069 52.188 76.2189 52.548 75.8109 52.812C75.4269 53.076 74.9829 53.112 74.4789 52.92C74.4789 53.568 74.3349 54.048 74.0469 54.36C73.7829 54.696 73.4709 54.864 73.1109 54.864C72.7509 54.864 72.4389 54.696 72.1749 54.36C71.9109 54.048 71.7789 53.568 71.7789 52.92C71.7789 53.592 71.5749 54.084 71.1669 54.396C70.7829 54.732 70.3389 54.9 69.8349 54.9C69.3309 54.9 68.8749 54.732 68.4669 54.396C68.0829 54.084 67.8909 53.592 67.8909 52.92C67.8909 53.52 67.7349 53.964 67.4229 54.252C67.1109 54.564 66.7389 54.72 66.3069 54.72C65.8989 54.72 65.5389 54.564 65.2269 54.252C64.9149 53.964 64.7589 53.52 64.7589 52.92C64.7589 53.616 64.5549 54.132 64.1469 54.468C63.7629 54.828 63.3189 55.008 62.8149 55.008C62.3109 55.008 61.8549 54.828 61.4469 54.468C61.0629 54.132 60.8709 53.616 60.8709 52.92C60.8709 53.52 60.6789 53.94 60.2949 54.18C59.9349 54.444 59.5149 54.468 59.0349 54.252C58.5549 54.06 58.1349 53.58 57.7749 52.812C57.4149 52.02 57.2469 50.892 57.2709 49.428ZM81.2827 49.572C80.4187 49.572 79.8427 49.416 79.5547 49.104C79.2667 48.792 79.2667 48.48 79.5547 48.168C79.8427 47.856 80.4187 47.7 81.2827 47.7C80.8507 47.7 80.5027 47.52 80.2387 47.16C79.9747 46.776 79.7947 46.308 79.6987 45.756C79.6267 45.204 79.6267 44.652 79.6987 44.1C79.7947 43.524 79.9747 43.056 80.2387 42.696C80.5027 42.312 80.8507 42.12 81.2827 42.12C80.6827 42.12 80.2267 41.928 79.9147 41.544C79.6027 41.136 79.4467 40.68 79.4467 40.176C79.4467 39.672 79.6027 39.228 79.9147 38.844C80.2267 38.436 80.6827 38.232 81.2827 38.232C80.4667 38.232 79.9147 38.076 79.6267 37.764C79.3627 37.452 79.3627 37.14 79.6267 36.828C79.9147 36.516 80.4667 36.36 81.2827 36.36C80.4427 36.36 79.8787 36.24 79.5907 36C79.3267 35.76 79.3267 35.532 79.5907 35.316C79.8787 35.076 80.4427 34.956 81.2827 34.956C80.4427 34.956 79.8787 34.812 79.5907 34.524C79.3267 34.236 79.3267 33.948 79.5907 33.66C79.8787 33.372 80.4427 33.228 81.2827 33.228C80.5147 33.228 79.9987 33.048 79.7347 32.688C79.4947 32.328 79.4947 31.968 79.7347 31.608C79.9987 31.248 80.5147 31.068 81.2827 31.068C80.8987 30.516 80.7907 30.048 80.9587 29.664C81.1267 29.28 81.4147 29.088 81.8227 29.088C82.2547 29.064 82.6627 29.328 83.0467 29.88C83.0467 28.944 83.2267 28.332 83.5867 28.044C83.9467 27.732 84.3067 27.732 84.6667 28.044C85.0267 28.332 85.2067 28.944 85.2067 29.88C85.2067 29.184 85.3747 28.668 85.7107 28.332C86.0467 27.996 86.4307 27.828 86.8627 27.828C87.2947 27.828 87.6787 27.996 88.0147 28.332C88.3507 28.668 88.5187 29.184 88.5187 29.88C88.5187 29.304 88.6747 28.884 88.9867 28.62C89.3227 28.332 89.6947 28.188 90.1027 28.188C90.5107 28.188 90.8707 28.332 91.1827 28.62C91.5187 28.884 91.6867 29.304 91.6867 29.88C91.7587 29.328 92.0467 28.944 92.5507 28.728C93.0787 28.512 93.6547 28.452 94.2787 28.548C94.9027 28.62 95.4307 28.824 95.8627 29.16C96.2947 29.496 96.4747 29.94 96.4027 30.492C96.7627 29.628 97.1347 29.112 97.5187 28.944C97.9027 28.776 98.1667 28.896 98.3107 29.304C98.4547 29.688 98.3587 30.312 98.0227 31.176C98.3347 30.864 98.7187 30.804 99.1747 30.996C99.6547 31.164 100.099 31.464 100.507 31.896C100.939 32.328 101.227 32.784 101.371 33.264C101.539 33.744 101.467 34.14 101.155 34.452C101.779 34.308 102.271 34.344 102.631 34.56C103.015 34.752 103.243 35.028 103.315 35.388C103.411 35.724 103.327 36.06 103.063 36.396C102.823 36.732 102.391 36.972 101.767 37.116C102.199 37.236 102.463 37.56 102.559 38.088C102.655 38.592 102.619 39.156 102.451 39.78C102.283 40.38 102.019 40.884 101.659 41.292C101.323 41.676 100.939 41.808 100.507 41.688C100.963 42.216 101.107 42.732 100.939 43.236C100.795 43.74 100.519 44.112 100.111 44.352C100.255 44.712 99.9667 45.036 99.2467 45.324C99.7027 45.348 100.111 45.528 100.471 45.864C100.831 46.2 101.095 46.608 101.263 47.088C101.431 47.544 101.455 48 101.335 48.456C101.215 48.912 100.915 49.284 100.435 49.572C101.155 49.164 101.707 48.996 102.091 49.068C102.499 49.116 102.667 49.308 102.595 49.644C102.523 49.956 102.175 50.316 101.551 50.724C102.103 50.436 102.559 50.412 102.919 50.652C103.279 50.868 103.447 51.204 103.423 51.66C103.423 52.092 103.135 52.512 102.559 52.92C102.559 53.4 102.379 53.784 102.019 54.072C101.683 54.36 101.263 54.552 100.759 54.648C100.255 54.744 99.7507 54.744 99.2467 54.648C98.7427 54.552 98.3107 54.36 97.9507 54.072C97.6147 53.784 97.4467 53.4 97.4467 52.92C97.2307 53.4 96.9067 53.688 96.4747 53.784C96.0427 53.856 95.6107 53.796 95.1787 53.604C94.7467 53.412 94.4227 53.124 94.2067 52.74C93.9907 52.332 93.9907 51.9 94.2067 51.444C93.7507 51.636 93.3307 51.66 92.9467 51.516C92.5867 51.348 92.3107 51.084 92.1187 50.724C91.9267 50.364 91.8547 49.992 91.9027 49.608C91.9747 49.2 92.2027 48.864 92.5867 48.6C92.1067 48.816 91.6147 48.756 91.1107 48.42C90.6307 48.084 90.2827 47.652 90.0667 47.124C89.8987 47.22 89.7067 47.268 89.4907 47.268C89.6107 47.7 89.5507 48.132 89.3107 48.564C89.0947 48.972 88.6987 49.176 88.1227 49.176C88.6027 49.176 88.9627 49.308 89.2027 49.572C89.4427 49.836 89.5627 50.136 89.5627 50.472C89.5627 50.808 89.4427 51.108 89.2027 51.372C88.9627 51.612 88.6027 51.732 88.1227 51.732C88.4827 52.212 88.6027 52.632 88.4827 52.992C88.3627 53.328 88.1107 53.52 87.7267 53.568C87.3667 53.592 87.0067 53.376 86.6467 52.92C86.6467 53.496 86.4547 53.94 86.0707 54.252C85.7107 54.564 85.2547 54.72 84.7027 54.72C84.1747 54.744 83.6467 54.576 83.1187 54.216C82.5907 53.88 82.1467 53.34 81.7867 52.596C81.4267 51.828 81.2587 50.82 81.2827 49.572ZM88.1227 38.124C88.6027 38.124 88.9387 38.304 89.1307 38.664C89.3467 39 89.4427 39.324 89.4187 39.636C89.8027 39.348 90.3187 39.204 90.9667 39.204C91.6147 39.18 92.1187 39.3 92.4787 39.564C92.4547 39.156 92.5867 38.712 92.8747 38.232C93.1627 37.728 93.4867 37.404 93.8467 37.26C93.5347 37.14 93.4507 36.96 93.5947 36.72C93.1387 36.84 92.7667 36.732 92.4787 36.396C92.2147 36.06 92.1787 35.676 92.3707 35.244C92.0827 35.388 91.7227 35.46 91.2907 35.46C90.8827 35.46 90.4987 35.4 90.1387 35.28C89.7787 35.136 89.5507 34.932 89.4547 34.668C89.5027 35.148 89.3587 35.436 89.0227 35.532C89.0467 35.772 88.9867 36 88.8427 36.216C88.6987 36.432 88.4587 36.54 88.1227 36.54C88.5787 36.54 88.8787 36.672 89.0227 36.936C89.1907 37.2 89.1907 37.464 89.0227 37.728C88.8787 37.992 88.5787 38.124 88.1227 38.124ZM107.263 52.74C106.783 52.74 106.387 52.56 106.075 52.2C105.787 51.816 105.595 51.348 105.499 50.796C105.403 50.22 105.403 49.656 105.499 49.104C105.595 48.552 105.787 48.096 106.075 47.736C106.387 47.352 106.783 47.16 107.263 47.16C106.807 47.16 106.435 46.98 106.147 46.62C105.883 46.26 105.703 45.816 105.607 45.288C105.535 44.76 105.535 44.232 105.607 43.704C105.703 43.176 105.883 42.732 106.147 42.372C106.435 42.012 106.807 41.832 107.263 41.832C106.543 41.832 106.003 41.712 105.643 41.472C105.307 41.208 105.139 40.92 105.139 40.608C105.139 40.296 105.307 40.02 105.643 39.78C106.003 39.516 106.543 39.384 107.263 39.384C106.807 39.384 106.447 39.204 106.183 38.844C105.919 38.484 105.739 38.04 105.643 37.512C105.571 36.984 105.571 36.456 105.643 35.928C105.739 35.4 105.919 34.968 106.183 34.632C106.447 34.272 106.807 34.092 107.263 34.092C106.327 34.092 105.691 33.936 105.355 33.624C105.043 33.312 105.043 33 105.355 32.688C105.691 32.376 106.327 32.22 107.263 32.22C106.927 31.86 106.783 31.476 106.831 31.068C106.903 30.66 107.095 30.312 107.407 30.024C107.719 29.712 108.079 29.532 108.487 29.484C108.895 29.412 109.267 29.544 109.603 29.88C109.603 29.232 109.747 28.752 110.035 28.44C110.347 28.104 110.707 27.936 111.115 27.936C111.523 27.936 111.871 28.104 112.159 28.44C112.471 28.752 112.627 29.232 112.627 29.88C113.083 29.544 113.515 29.424 113.923 29.52C114.331 29.592 114.655 29.796 114.895 30.132C115.135 30.444 115.219 30.816 115.147 31.248C115.099 31.656 114.847 32.028 114.391 32.364C114.967 32.364 115.399 32.544 115.687 32.904C115.999 33.24 116.155 33.636 116.155 34.092C116.155 34.548 115.999 34.944 115.687 35.28C115.399 35.616 114.967 35.784 114.391 35.784C115.303 35.784 115.903 35.904 116.191 36.144C116.503 36.384 116.503 36.624 116.191 36.864C115.903 37.104 115.303 37.224 114.391 37.224C114.943 37.224 115.351 37.368 115.615 37.656C115.879 37.92 116.011 38.232 116.011 38.592C116.011 38.952 115.879 39.276 115.615 39.564C115.351 39.828 114.943 39.96 114.391 39.96C115.087 39.96 115.603 40.176 115.939 40.608C116.299 41.016 116.479 41.496 116.479 42.048C116.479 42.6 116.299 43.092 115.939 43.524C115.603 43.932 115.087 44.136 114.391 44.136C115.231 44.136 115.783 44.292 116.047 44.604C116.335 44.916 116.335 45.228 116.047 45.54C115.783 45.852 115.231 46.008 114.391 46.008C114.847 46.008 115.207 46.188 115.471 46.548C115.759 46.884 115.939 47.316 116.011 47.844C116.107 48.372 116.107 48.9 116.011 49.428C115.939 49.956 115.759 50.4 115.471 50.76C115.207 51.12 114.847 51.3 114.391 51.3C114.655 51.684 114.727 52.056 114.607 52.416C114.511 52.752 114.307 53.028 113.995 53.244C113.683 53.46 113.347 53.556 112.987 53.532C112.627 53.508 112.315 53.304 112.051 52.92C112.051 53.4 111.883 53.772 111.547 54.036C111.235 54.324 110.827 54.516 110.323 54.612C109.843 54.708 109.363 54.696 108.883 54.576C108.403 54.48 108.007 54.276 107.695 53.964C107.383 53.652 107.239 53.244 107.263 52.74ZM127.177 53.1C127.057 53.628 126.793 53.976 126.385 54.144C125.977 54.336 125.545 54.372 125.089 54.252C124.657 54.156 124.297 53.94 124.009 53.604C123.745 53.244 123.685 52.8 123.829 52.272C123.517 52.728 123.121 52.968 122.641 52.992C122.161 52.992 121.705 52.848 121.273 52.56C120.865 52.272 120.565 51.912 120.373 51.48C120.205 51.024 120.277 50.568 120.589 50.112C120.109 50.376 119.689 50.46 119.329 50.364C118.969 50.244 118.705 50.04 118.537 49.752C118.369 49.44 118.345 49.116 118.465 48.78C118.585 48.42 118.885 48.108 119.365 47.844C119.221 47.34 119.257 46.932 119.473 46.62C119.713 46.284 120.025 46.056 120.409 45.936C120.793 45.816 121.165 45.84 121.525 46.008C121.909 46.176 122.173 46.5 122.317 46.98C122.413 46.476 122.725 46.14 123.253 45.972C123.781 45.804 124.369 45.768 125.017 45.864C125.665 45.96 126.229 46.164 126.709 46.476C127.213 46.788 127.489 47.196 127.537 47.7C127.609 47.292 127.837 46.968 128.221 46.728C128.605 46.488 129.061 46.332 129.589 46.26C130.117 46.188 130.621 46.2 131.101 46.296C131.077 46.008 131.173 45.72 131.389 45.432C131.173 45.192 131.125 44.856 131.245 44.424C131.029 44.88 130.621 45.168 130.021 45.288C129.445 45.408 128.833 45.396 128.185 45.252C127.537 45.108 126.985 44.856 126.529 44.496C126.097 44.136 125.929 43.692 126.025 43.164C125.833 43.644 125.485 43.932 124.981 44.028C124.501 44.1 124.009 44.028 123.505 43.812C123.001 43.596 122.605 43.284 122.317 42.876C122.029 42.468 121.993 42.036 122.209 41.58C121.777 41.892 121.345 42 120.913 41.904C120.481 41.784 120.133 41.544 119.869 41.184C119.605 40.824 119.473 40.428 119.473 39.996C119.473 39.564 119.689 39.18 120.121 38.844C119.521 38.916 119.053 38.844 118.717 38.628C118.405 38.412 118.225 38.148 118.177 37.836C118.129 37.5 118.237 37.188 118.501 36.9C118.765 36.588 119.197 36.396 119.797 36.324C119.149 36.156 118.681 35.916 118.393 35.604C118.129 35.268 118.033 34.944 118.105 34.632C118.201 34.32 118.441 34.092 118.825 33.948C119.233 33.78 119.761 33.792 120.409 33.984C119.881 33.576 119.569 33.168 119.473 32.76C119.377 32.328 119.425 31.98 119.617 31.716C119.833 31.452 120.145 31.32 120.553 31.32C120.985 31.32 121.465 31.524 121.993 31.932C121.705 31.452 121.597 31.02 121.669 30.636C121.741 30.252 121.921 29.976 122.209 29.808C122.497 29.616 122.821 29.58 123.181 29.7C123.565 29.796 123.901 30.084 124.189 30.564C124.069 30.036 124.141 29.604 124.405 29.268C124.693 28.908 125.065 28.668 125.521 28.548C125.977 28.428 126.409 28.452 126.817 28.62C127.249 28.788 127.537 29.124 127.681 29.628C127.705 29.124 127.897 28.728 128.257 28.44C128.617 28.128 129.049 27.936 129.553 27.864C130.081 27.768 130.597 27.792 131.101 27.936C131.629 28.056 132.049 28.284 132.361 28.62C132.697 28.932 132.853 29.352 132.829 29.88C133.069 29.4 133.417 29.1 133.873 28.98C134.329 28.86 134.821 28.872 135.349 29.016C135.901 29.136 136.393 29.364 136.825 29.7C137.281 30.012 137.605 30.396 137.797 30.852C138.013 31.284 138.013 31.728 137.797 32.184C138.181 31.968 138.577 31.968 138.985 32.184C139.393 32.4 139.729 32.736 139.993 33.192C140.257 33.648 140.389 34.104 140.389 34.56C140.389 35.016 140.197 35.364 139.813 35.604C139.813 36.084 139.573 36.444 139.093 36.684C138.637 36.924 138.109 37.044 137.509 37.044C136.909 37.044 136.369 36.924 135.889 36.684C135.433 36.444 135.205 36.084 135.205 35.604C135.109 36.06 134.857 36.36 134.449 36.504C134.041 36.648 133.597 36.684 133.117 36.612C132.637 36.516 132.217 36.324 131.857 36.036C131.521 35.748 131.365 35.388 131.389 34.956C131.317 35.34 131.101 35.616 130.741 35.784C130.405 35.952 130.045 36.012 129.661 35.964C129.757 36.588 129.565 37.104 129.085 37.512C129.109 37.68 129.085 37.872 129.013 38.088C129.277 37.728 129.709 37.512 130.309 37.44C130.933 37.344 131.569 37.38 132.217 37.548C132.889 37.692 133.441 37.944 133.873 38.304C134.305 38.64 134.485 39.048 134.413 39.528C134.581 39.096 134.905 38.856 135.385 38.808C135.889 38.736 136.417 38.808 136.969 39.024C137.521 39.216 137.965 39.504 138.301 39.888C138.661 40.272 138.757 40.668 138.589 41.076C138.997 40.836 139.405 40.836 139.813 41.076C140.245 41.316 140.605 41.676 140.893 42.156C141.181 42.636 141.325 43.128 141.325 43.632C141.349 44.112 141.157 44.472 140.749 44.712C141.277 44.784 141.637 45.048 141.829 45.504C142.045 45.96 142.105 46.452 142.009 46.98C141.937 47.508 141.733 47.952 141.397 48.312C141.085 48.672 140.653 48.816 140.101 48.744C140.389 49.08 140.473 49.476 140.353 49.932C140.257 50.364 140.029 50.796 139.669 51.228C139.309 51.636 138.889 51.984 138.409 52.272C137.929 52.536 137.461 52.692 137.005 52.74C136.549 52.764 136.177 52.596 135.889 52.236C136.009 52.788 135.889 53.244 135.529 53.604C135.169 53.964 134.701 54.204 134.125 54.324C133.573 54.468 133.057 54.444 132.577 54.252C132.097 54.084 131.797 53.736 131.677 53.208C131.725 54.36 131.341 54.936 130.525 54.936C129.733 54.96 128.617 54.348 127.177 53.1ZM145.619 48.996C145.019 48.996 144.563 48.864 144.251 48.6C143.963 48.312 143.819 47.988 143.819 47.628C143.819 47.268 143.963 46.956 144.251 46.692C144.563 46.428 145.019 46.296 145.619 46.296C144.803 46.296 144.251 46.164 143.963 45.9C143.699 45.636 143.699 45.372 143.963 45.108C144.251 44.844 144.803 44.712 145.619 44.712C145.019 44.712 144.575 44.58 144.287 44.316C143.999 44.028 143.855 43.704 143.855 43.344C143.855 42.984 143.999 42.672 144.287 42.408C144.575 42.12 145.019 41.976 145.619 41.976C144.923 41.976 144.395 41.772 144.035 41.364C143.699 40.932 143.531 40.44 143.531 39.888C143.531 39.336 143.699 38.856 144.035 38.448C144.395 38.016 144.923 37.8 145.619 37.8C144.995 37.8 144.527 37.584 144.215 37.152C143.903 36.696 143.747 36.18 143.747 35.604C143.747 35.004 143.903 34.488 144.215 34.056C144.527 33.6 144.995 33.372 145.619 33.372C145.043 33.348 144.611 33.168 144.323 32.832C144.059 32.472 143.927 32.064 143.927 31.608C143.927 31.152 144.071 30.756 144.359 30.42C144.647 30.06 145.079 29.88 145.655 29.88C145.655 29.16 145.823 28.632 146.159 28.296C146.495 27.936 146.879 27.756 147.311 27.756C147.743 27.756 148.127 27.936 148.463 28.296C148.799 28.632 148.967 29.16 148.967 29.88C148.967 29.208 149.123 28.704 149.435 28.368C149.771 28.032 150.143 27.864 150.551 27.864C150.959 27.864 151.319 28.032 151.631 28.368C151.967 28.704 152.135 29.208 152.135 29.88C152.879 29.76 153.395 29.844 153.683 30.132C153.971 30.396 154.019 30.708 153.827 31.068C153.659 31.428 153.203 31.668 152.459 31.788C153.275 31.788 153.851 32.016 154.187 32.472C154.547 32.904 154.667 33.384 154.547 33.912C154.427 34.416 154.079 34.788 153.503 35.028C153.935 35.1 154.283 35.316 154.547 35.676C154.835 36.012 155.003 36.384 155.051 36.792C155.531 36.504 156.083 36.384 156.707 36.432C157.355 36.48 157.871 36.708 158.255 37.116C158.279 36.708 158.447 36.444 158.759 36.324C158.519 35.892 158.531 35.436 158.795 34.956C159.083 34.476 159.635 34.236 160.451 34.236C159.731 34.236 159.191 34.02 158.831 33.588C158.495 33.156 158.327 32.652 158.327 32.076C158.327 31.5 158.495 30.996 158.831 30.564C159.191 30.132 159.731 29.916 160.451 29.916C160.451 29.316 160.619 28.86 160.955 28.548C161.291 28.236 161.675 28.08 162.107 28.08C162.539 28.056 162.923 28.2 163.259 28.512C163.619 28.824 163.799 29.28 163.799 29.88C163.799 29.184 163.931 28.656 164.195 28.296C164.459 27.936 164.759 27.756 165.095 27.756C165.431 27.756 165.731 27.936 165.995 28.296C166.259 28.656 166.391 29.184 166.391 29.88C166.823 29.784 167.195 29.892 167.507 30.204C167.819 30.492 168.035 30.876 168.155 31.356C168.275 31.836 168.263 32.292 168.119 32.724C167.999 33.132 167.723 33.396 167.291 33.516C167.987 33.516 168.503 33.756 168.839 34.236C169.175 34.692 169.343 35.244 169.343 35.892C169.343 36.516 169.175 37.068 168.839 37.548C168.503 38.004 167.987 38.232 167.291 38.232C168.011 38.232 168.539 38.448 168.875 38.88C169.235 39.312 169.415 39.816 169.415 40.392C169.415 40.968 169.235 41.472 168.875 41.904C168.539 42.336 168.011 42.552 167.291 42.552C168.011 42.552 168.539 42.78 168.875 43.236C169.235 43.692 169.415 44.232 169.415 44.856C169.415 45.456 169.235 45.996 168.875 46.476C168.539 46.932 168.011 47.16 167.291 47.16C168.059 47.16 168.563 47.28 168.803 47.52C169.067 47.736 169.067 47.964 168.803 48.204C168.563 48.444 168.059 48.564 167.291 48.564C167.843 48.564 168.251 48.72 168.515 49.032C168.803 49.344 168.947 49.704 168.947 50.112C168.947 50.496 168.803 50.844 168.515 51.156C168.251 51.444 167.843 51.588 167.291 51.588C167.507 52.068 167.519 52.5 167.327 52.884C167.135 53.244 166.847 53.508 166.463 53.676C166.079 53.844 165.683 53.88 165.275 53.784C164.891 53.688 164.591 53.4 164.375 52.92C164.399 53.544 164.207 54.012 163.799 54.324C163.415 54.66 162.959 54.828 162.431 54.828C161.927 54.852 161.471 54.708 161.063 54.396C160.679 54.108 160.475 53.652 160.451 53.028C159.971 53.028 159.599 52.812 159.335 52.38C159.071 51.948 158.903 51.444 158.831 50.868C158.783 50.268 158.843 49.704 159.011 49.176C159.179 48.624 159.467 48.24 159.875 48.024C159.131 48.144 158.543 47.952 158.111 47.448C157.703 46.92 157.547 46.356 157.643 45.756C156.755 46.044 155.891 46.032 155.051 45.72C155.099 46.008 155.027 46.26 154.835 46.476C154.667 46.692 154.415 46.824 154.079 46.872C154.511 47.184 154.595 47.556 154.331 47.988C154.067 48.396 153.443 48.6 152.459 48.6C153.395 48.6 154.007 48.732 154.295 48.996C154.607 49.26 154.607 49.524 154.295 49.788C154.007 50.052 153.395 50.184 152.459 50.184C153.035 50.184 153.467 50.316 153.755 50.58C154.067 50.844 154.223 51.156 154.223 51.516C154.223 51.876 154.067 52.2 153.755 52.488C153.467 52.752 153.035 52.884 152.459 52.884C152.483 53.796 152.387 54.396 152.171 54.684C151.955 54.996 151.727 54.996 151.487 54.684C151.271 54.396 151.151 53.808 151.127 52.92C151.127 53.496 150.995 53.916 150.731 54.18C150.467 54.468 150.167 54.612 149.831 54.612C149.495 54.612 149.195 54.468 148.931 54.18C148.667 53.916 148.535 53.496 148.535 52.92C148.535 53.856 148.403 54.48 148.139 54.792C147.875 55.104 147.611 55.104 147.347 54.792C147.083 54.48 146.951 53.856 146.951 52.92C146.951 53.544 146.879 53.988 146.735 54.252C146.591 54.54 146.423 54.564 146.231 54.324C146.063 54.084 145.907 53.544 145.763 52.704C145.643 51.84 145.595 50.604 145.619 48.996Z" fill="#232323"/>
<path d="M38.1578 21.3553C38.1553 21.6598 38.0286 21.8919 37.7776 22.0517C37.4965 22.1962 37.1818 22.2761 36.8336 22.2912C36.4552 22.2912 36.1418 22.2188 35.8932 22.0741C35.6145 21.9142 35.4764 21.682 35.4788 21.3776C35.242 21.6592 34.9534 21.7809 34.6132 21.7427C34.2428 21.6894 33.9035 21.5371 33.5953 21.2858C33.287 21.0346 33.0775 20.7377 32.9668 20.3952C32.856 20.0526 32.9304 19.7368 33.19 19.4476C32.7471 19.9499 32.2463 20.1172 31.6877 19.9496C31.129 19.7821 30.7267 19.4737 30.4805 19.0246C30.1139 19.4508 29.6549 19.5915 29.1037 19.4468C29.2741 19.8959 29.2966 20.3944 29.1712 20.9424C29.0383 21.4676 28.7926 21.9166 28.4339 22.2895C28.0679 22.6395 27.6243 22.7498 27.1032 22.6203C27.4342 22.8639 27.5601 23.2141 27.4808 23.6707C27.3713 24.1122 27.1597 24.5498 26.8459 24.9836C26.5021 25.4021 26.125 25.7179 25.7146 25.9309C25.3043 26.144 24.945 26.1249 24.6368 25.8736C24.7549 26.239 24.6387 26.5815 24.288 26.9011C23.93 27.1979 23.4892 27.4337 22.9656 27.6087C22.4193 27.7912 21.9155 27.871 21.454 27.8481C20.9852 27.8023 20.6918 27.5968 20.5736 27.2314C19.9627 26.9801 19.6286 26.6489 19.5713 26.2379C19.4913 25.8345 19.615 25.5148 19.9422 25.2789C20.2695 25.0431 20.7386 25.0508 21.3496 25.3021C20.957 25.1802 20.7094 24.9214 20.6066 24.5256C20.4811 24.1374 20.4881 23.7301 20.6277 23.3039C20.7372 22.8625 20.9482 22.501 21.2607 22.2194C21.5505 21.9455 21.903 21.8657 22.3183 21.9799C21.986 21.8885 21.7799 21.6411 21.6999 21.2377C21.6125 20.8114 21.6165 20.3167 21.7118 19.7535C21.7843 19.1978 21.94 18.6651 22.1786 18.1552C22.3871 17.63 22.644 17.2153 22.9491 16.9109C23.2315 16.6141 23.5237 16.5038 23.8258 16.58C23.1613 16.3971 22.7663 16.1116 22.6408 15.7234C22.5152 15.3352 22.6124 15.0118 22.9323 14.753C23.2522 14.4943 23.7444 14.4564 24.4088 14.6392C23.9105 14.5021 23.5718 14.2737 23.3927 13.9539C23.2137 13.6342 23.1746 13.3183 23.2755 13.0063C23.3462 12.679 23.5526 12.4203 23.8946 12.2301C24.2139 12.0475 24.6227 12.0247 25.1211 12.1618C24.835 11.9791 24.7236 11.7127 24.7869 11.3626C24.8429 10.9896 25.0047 10.6319 25.2723 10.2895C25.5097 9.93177 25.7881 9.66162 26.1074 9.47902C26.4267 9.29641 26.718 9.30028 26.9813 9.49062C27.1597 8.95025 27.4571 8.66108 27.8736 8.62311C28.2827 8.5623 28.6374 8.68416 28.9377 8.98868C29.2305 9.27036 29.2764 9.68519 29.0753 10.2332C29.3736 9.82983 29.7572 9.65104 30.226 9.69681C30.6948 9.74258 31.1473 9.93296 31.5835 10.2679C31.9896 10.5877 32.2779 10.9721 32.4483 11.4213C32.6114 11.8475 32.5438 12.2623 32.2454 12.6657C32.5438 12.2623 32.9123 12.0759 33.3509 12.1065C33.7822 12.1142 34.1858 12.2703 34.5617 12.5748C34.9303 12.8565 35.181 13.2029 35.3139 13.6139C35.4468 14.025 35.3527 14.436 35.0316 14.8469C35.2992 14.5045 35.6748 14.379 36.1584 14.4704C36.6419 14.5618 37.1206 14.7941 37.5944 15.1671C38.0607 15.5174 38.4056 15.9208 38.629 16.3776C38.8222 16.8191 38.785 17.211 38.5174 17.5535C38.7161 17.31 38.9855 17.2073 39.3258 17.2454C39.6358 17.2683 39.9336 17.4092 40.2191 17.668C40.4744 17.9116 40.627 18.2276 40.6769 18.6157C40.704 19.0115 40.5302 19.4492 40.1556 19.9286C39.781 20.408 39.115 20.8836 38.1578 21.3553Z" fill="#343434"/>
<path d="M123.349 21.2818C122.975 20.8723 122.809 20.5244 122.85 20.2382C122.915 19.9575 123.089 19.7892 123.372 19.7333C123.674 19.7063 124.012 19.8976 124.386 20.3071C124.125 20.0478 124.055 19.7105 124.175 19.295C124.319 18.8851 124.564 18.4623 124.91 18.0266C125.28 17.5964 125.688 17.2124 126.135 16.8746C126.6 16.5658 127.041 16.3622 127.458 16.2638C127.874 16.1655 128.199 16.2549 128.43 16.5319C127.997 16.059 127.827 15.6238 127.918 15.2261C128.027 14.8575 128.276 14.6329 128.664 14.5524C129.046 14.4952 129.466 14.7059 129.922 15.1844C129.59 14.8094 129.489 14.3907 129.62 13.9285C129.774 13.4718 130.043 13.0545 130.425 12.6767C130.825 12.3278 131.26 12.0981 131.729 11.9874C132.197 11.8768 132.6 11.9973 132.938 12.3489C132.624 12.0028 132.503 11.6165 132.577 11.1899C132.668 10.7923 132.885 10.4369 133.228 10.1237C133.566 9.83387 133.94 9.65149 134.351 9.57653C134.757 9.52496 135.129 9.67498 135.467 10.0266C135.594 9.68683 135.838 9.48563 136.197 9.42296C136.551 9.38369 136.909 9.43182 137.272 9.56737C137.652 9.73186 137.947 9.94987 138.156 10.2214C138.382 10.5219 138.417 10.8509 138.261 11.2085C138.665 11.0578 139.014 11.0915 139.309 11.3095C139.627 11.5331 139.865 11.8363 140.023 12.2193C140.182 12.6022 140.218 12.9808 140.132 13.355C140.045 13.7292 139.8 13.9917 139.396 14.1424C139.853 13.9794 140.205 14.0014 140.452 14.2083C140.7 14.4152 140.801 14.6735 140.755 14.9831C140.726 15.3216 140.484 15.5724 140.027 15.7354C140.374 15.6204 140.706 15.6747 141.024 15.8982C141.366 16.1273 141.659 16.4561 141.906 16.8847C142.17 17.3421 142.356 17.818 142.464 18.3123C142.572 18.8067 142.58 19.2527 142.489 19.6503C142.397 20.0479 142.176 20.3159 141.824 20.4543C142.204 20.2981 142.548 20.3551 142.856 20.6255C143.163 20.8958 143.402 21.2486 143.573 21.6839C143.743 22.1191 143.795 22.5384 143.727 22.9415C143.677 23.3736 143.464 23.6561 143.089 23.7889C143.602 23.5903 143.986 23.5827 144.239 23.7663C144.492 23.9498 144.584 24.1936 144.514 24.4976C144.439 24.8251 144.159 25.0792 143.674 25.26C143.884 25.6307 143.87 25.9603 143.631 26.2489C143.387 26.5609 143.074 26.7455 142.691 26.8026C142.309 26.8597 142.012 26.703 141.802 26.3323C141.705 26.7533 141.504 27.0386 141.199 27.1881C140.888 27.3609 140.569 27.4085 140.243 27.3309C139.916 27.2532 139.651 27.0669 139.448 26.772C139.262 26.506 139.218 26.1625 139.315 25.7415C138.866 25.9801 138.433 25.9883 138.017 25.7659C137.623 25.5491 137.294 25.212 137.03 24.7545C136.789 24.3026 136.688 23.8345 136.725 23.35C136.757 22.889 136.986 22.5363 137.412 22.2921C136.984 22.4372 136.572 22.3023 136.175 21.8872C135.801 21.4778 135.495 20.9363 135.256 20.2628C135.011 19.6126 134.895 18.993 134.907 18.4039C134.819 18.3584 134.746 18.3039 134.686 18.2404C134.751 18.6012 134.682 18.9548 134.479 19.3013C134.295 19.6767 134.027 19.9832 133.677 20.2207C133.35 20.4637 132.989 20.5876 132.594 20.5924C132.217 20.6261 131.869 20.4817 131.549 20.159C131.804 20.4416 131.877 20.7673 131.767 21.136C131.676 21.5336 131.471 21.8918 131.151 22.2105C130.831 22.5293 130.475 22.7406 130.082 22.8445C129.712 22.954 129.388 22.8646 129.109 22.5764C129.07 22.9617 128.81 23.2331 128.331 23.3905C127.851 23.548 127.297 23.6013 126.669 23.5506C126.064 23.5055 125.529 23.3662 125.066 23.1327C124.626 22.9048 124.414 22.5954 124.43 22.2045C124.369 22.6834 124.179 22.9715 123.861 23.0686C123.567 23.1713 123.321 23.0635 123.123 22.7452C122.943 22.4558 123.019 21.968 123.349 21.2818Z" fill="#343434"/>
<path d="M173.25 39.2217C175.314 38.9924 177.057 36.7216 177.057 34.8289C177.057 32.2972 176.355 30.4011 175.154 28.2396C173.706 25.6338 174.511 23.047 175.886 20.6416C177.002 18.688 180.12 18.7218 182.036 18.7218" stroke="#343434" stroke-width="3" stroke-linecap="round"/>
<path d="M174.977 39.9777C175.183 39.9262 175.098 39.7533 175.098 40.1662C175.098 40.3154 175.22 39.8845 175.22 39.7353" stroke="#343434" stroke-width="3" stroke-linecap="round"/>
<path d="M176.432 38.6444C176.701 38.6781 176.959 38.7656 177.28 38.7656" stroke="#343434" stroke-width="3" stroke-linecap="round"/>
<path d="M177.644 37.19C177.874 36.9854 178.1 37.1265 178.25 36.8264" stroke="#343434" stroke-width="3" stroke-linecap="round"/>
<path d="M178.007 35.2507C178.039 34.9651 178.373 34.7611 178.492 34.5235" stroke="#343434" stroke-width="3" stroke-linecap="round"/>
<path d="M178.371 32.463C178.259 32.477 178.291 32.5024 178.25 32.5842" stroke="#343434" stroke-width="3" stroke-linecap="round"/>
<path d="M177.644 30.2813V30.4025" stroke="#343434" stroke-width="3" stroke-linecap="round"/>
<path d="M176.795 28.2209L176.674 28.3421" stroke="#343434" stroke-width="3" stroke-linecap="round"/>
<path d="M176.068 26.7664C175.925 26.7485 175.947 26.6447 175.947 26.524" stroke="#343434" stroke-width="3" stroke-linecap="round"/>
<path d="M174.977 24.4635C175.108 24.4472 175.225 24.2792 175.341 24.2211" stroke="#343434" stroke-width="3" stroke-linecap="round"/>
<path d="M175.704 22.2819H175.947" stroke="#343434" stroke-width="3" stroke-linecap="round"/>
<path d="M177.522 20.9486C177.487 20.669 177.28 21.0562 177.28 20.585" stroke="#343434" stroke-width="3" stroke-linecap="round"/>
<path d="M179.462 20.1002C179.096 20.1002 178.883 20.1002 179.34 20.1002" stroke="#343434" stroke-width="3" stroke-linecap="round"/>
<path d="M181.522 19.8578C181.462 19.9116 181.262 19.979 181.401 19.979" stroke="#343434" stroke-width="3" stroke-linecap="round"/>
<path d="M178.613 19.6154C178.613 19.8011 178.518 20.2084 178.734 20.1002" stroke="#343434" stroke-width="3" stroke-linecap="round"/>
<path d="M173.886 37.4324H174.129" stroke="#343434" stroke-width="3" stroke-linecap="round"/>
<path d="M175.341 35.6143V35.4931" stroke="#343434" stroke-width="3" stroke-linecap="round"/>
<path d="M175.341 33.3114L175.462 33.1902" stroke="#343434" stroke-width="3" stroke-linecap="round"/>
<path d="M175.098 30.7662V31.1298" stroke="#343434" stroke-width="3" stroke-linecap="round"/>
<path d="M173.644 28.4633C173.644 28.653 173.649 28.7105 173.765 28.8269" stroke="#343434" stroke-width="3" stroke-linecap="round"/>
<path d="M173.401 26.4028H173.644" stroke="#343434" stroke-width="3" stroke-linecap="round"/>
<path d="M173.28 24.3423C173.194 24.3531 173.113 24.4259 173.038 24.4636" stroke="#343434" stroke-width="3" stroke-linecap="round"/>
<path d="M173.523 22.8879V22.7667" stroke="#343434" stroke-width="3" stroke-linecap="round"/>
<path d="M174.856 20.8274C174.733 20.8138 174.609 20.745 174.492 20.7062" stroke="#343434" stroke-width="3" stroke-linecap="round"/>
<path d="M176.189 19.7366C176.09 19.6256 176.07 19.556 175.947 19.4942" stroke="#343434" stroke-width="3" stroke-linecap="round"/>
<path d="M177.765 19.1306C177.765 18.9316 177.823 18.7356 177.644 18.6458" stroke="#343434" stroke-width="3" stroke-linecap="round"/>
<path d="M179.098 18.4033C179.242 18.3854 179.219 18.2816 179.219 18.1609" stroke="#343434" stroke-width="3" stroke-linecap="round"/>
<path d="M180.916 18.0397C181.028 18.0258 180.996 18.0004 181.037 17.9185" stroke="#343434" stroke-width="3" stroke-linecap="round"/>
<path d="M176.553 22.2819C176.938 22.2819 177.28 22.4032 177.644 22.5243" stroke="#343434" stroke-linecap="round"/>
<path d="M173.28 35.7355C173.308 35.9823 173.674 36.3565 173.886 36.4627" stroke="#343434" stroke-linecap="round"/>
<path d="M177.522 34.7659C178.26 34.6184 179.04 33.8857 179.704 33.5538" stroke="#343434" stroke-linecap="round"/>
<path d="M173.765 35.8567C173.776 35.7708 173.849 35.6896 173.886 35.6143" stroke="#343434" stroke-linecap="round"/>
<path d="M173.886 31.0086C173.839 31.3841 173.895 30.9021 173.644 30.8874C173.387 30.8723 173.644 30.2138 173.644 30.0389" stroke="#343434" stroke-linecap="round"/>
<path d="M173.401 25.312C172.671 25.2772 171.955 25.1908 171.22 25.1908" stroke="#343434" stroke-linecap="round"/>
<path d="M182.855 18.6458C182.892 18.3123 183.198 17.8147 183.34 17.4943C183.538 17.0495 183.722 17.0445 183.461 17.501C183.278 17.8221 182.976 18.0112 183.461 18.0397C183.729 18.0555 184.025 18.2821 184.31 18.2821" stroke="#343434" stroke-linecap="round"/>
<path d="M173.401 40.4625C173.026 40.4625 172.994 40.5871 172.91 40.88C172.848 41.0963 172.365 41.0314 172.365 41.1628C172.365 41.3671 172.961 40.9605 172.984 40.954C173.15 40.9067 173.038 41.3995 173.038 41.5533" stroke="#343434" stroke-linecap="round"/>
</svg>
